<svg xmlns="http://www.w3.org/2000/svg"  viewBox="0 0 1492 1054" version="1.1">
	<path d="M 572.673 144.250 C 566.443 149.887, 549.006 165.763, 533.923 179.529 C 518.841 193.295, 493.675 216.237, 478 230.511 C 451.817 254.356, 366.913 332.010, 362.683 335.983 C 360.595 337.944, 359.275 331.925, 388.008 451.500 C 406.994 530.511, 415.665 567.182, 416.561 572.254 C 417.220 575.986, 417.135 576.102, 402.362 591.771 C 394.188 600.440, 386.486 608.681, 385.246 610.085 L 382.993 612.637 391.113 627.568 C 404.376 651.958, 429.543 699.260, 448.012 734.513 C 457.517 752.656, 477.078 789.775, 491.481 817 C 505.884 844.225, 522.301 875.388, 527.964 886.250 C 533.627 897.112, 538.623 906, 539.066 906 C 539.509 906, 551.038 893.979, 564.686 879.287 C 578.334 864.595, 598.508 842.883, 609.518 831.037 C 620.527 819.192, 641.901 796, 657.014 779.500 C 692.255 741.026, 732.472 697.534, 745.714 683.575 C 754.497 674.316, 756.277 672.867, 757.385 674.075 C 758.104 674.859, 766.074 683.389, 775.096 693.030 C 792.968 712.129, 821.058 742.519, 867.500 793 C 962.521 896.286, 972.517 906.864, 973.819 905.500 C 974.343 904.950, 987.263 880.650, 1002.530 851.500 C 1017.796 822.350, 1038.252 783.425, 1047.987 765 C 1057.723 746.575, 1068.981 725.200, 1073.004 717.500 C 1079.842 704.414, 1098.854 668.764, 1119.870 629.619 L 1128.932 612.739 1125.716 609.003 C 1123.947 606.949, 1116.865 599.245, 1109.977 591.884 C 1103.089 584.523, 1096.882 577.755, 1096.182 576.843 C 1094.779 575.016, 1098.675 556.948, 1113.402 497 C 1117.523 480.225, 1124.996 449.400, 1130.008 428.500 C 1135.021 407.600, 1141.745 379.700, 1144.951 366.500 C 1148.157 353.300, 1151.031 341.150, 1151.337 339.500 C 1151.869 336.632, 1150.457 335.195, 1119.197 306.782 C 1085.816 276.443, 1066.064 258.330, 1011.475 208 C 925.212 128.468, 931.059 133.629, 928.678 134.914 C 926.069 136.321, 900.623 156.652, 833.500 210.960 C 806 233.209, 777.469 256.292, 770.098 262.255 C 762.727 268.218, 756.099 272.868, 755.369 272.588 C 753.830 271.998, 662.758 197.723, 595.530 142.230 C 590.046 137.703, 585.208 134, 584.779 134 C 584.350 134, 578.902 138.613, 572.673 144.250 M 586.160 161.083 C 584.758 164.774, 486.492 459.316, 475.176 493.745 L 465.235 523.989 471.868 516.778 C 485.632 501.813, 572.696 408.128, 580.696 399.673 L 589.049 390.846 623.774 405.620 C 642.873 413.745, 677.175 428.345, 700 438.063 C 722.825 447.781, 741.645 455.610, 741.822 455.461 C 742.159 455.177, 721.269 414.573, 694.511 363.500 C 685.866 347, 669.107 314.825, 657.269 292 C 624.735 229.271, 589.862 162.737, 588.389 160.583 C 587.124 158.734, 587.045 158.752, 586.160 161.083 M 922.860 166.333 C 919.471 172.073, 906.200 196.855, 884.747 237.500 C 879.812 246.850, 874.291 257.200, 872.479 260.500 C 870.666 263.800, 860.428 283.150, 849.727 303.500 C 839.026 323.850, 818.525 362.643, 804.169 389.706 C 776.534 441.800, 769.679 455.061, 770.187 455.443 C 770.359 455.572, 777.925 452.564, 787 448.757 C 796.075 444.950, 821.275 434.384, 843 425.277 C 864.725 416.170, 891.473 404.957, 902.440 400.359 C 913.408 395.762, 922.858 392.045, 923.440 392.101 C 924.023 392.156, 928.100 396.098, 932.500 400.862 C 936.900 405.625, 956.250 426.413, 975.500 447.057 C 994.750 467.701, 1018.328 493.008, 1027.896 503.296 C 1037.464 513.583, 1045.407 522, 1045.548 522 C 1045.946 522, 1039.250 501.390, 1013.056 422 C 999.718 381.575, 981.693 326.900, 973 300.500 C 948.600 226.393, 926.816 160.518, 926.650 160.333 C 926.567 160.242, 924.862 162.942, 922.860 166.333 M 942.179 164 C 942.480 164.825, 956.089 206.225, 972.423 256 C 988.756 305.775, 1015.337 386.550, 1031.492 435.500 C 1047.647 484.450, 1062.507 529.606, 1064.514 535.846 C 1068.079 546.934, 1068.334 547.372, 1075.763 555.147 C 1084.289 564.071, 1083.951 564.137, 1086.436 553.072 C 1088.469 544.024, 1102.424 485.939, 1119.849 414 C 1126.976 384.575, 1133.824 356.252, 1135.067 351.059 L 1137.327 341.618 1133.352 338.059 C 1120.951 326.958, 1058.844 270.189, 1030.448 244 C 942.086 162.507, 941.411 161.896, 942.179 164 M 557.480 176.306 C 551.419 181.913, 539.298 193.025, 530.544 201 C 521.791 208.975, 503.330 225.850, 489.519 238.500 C 475.709 251.150, 449.819 274.775, 431.985 291 C 383.855 334.788, 376 342.104, 376 343.140 C 376 344.263, 388.940 398.915, 406.866 473.500 C 418.183 520.587, 422.588 539.236, 427.134 559.292 L 428.220 564.084 435.576 556.292 L 442.932 548.500 463.927 485 C 475.474 450.075, 504.062 364.125, 527.456 294 C 550.850 223.875, 569.993 166.387, 569.995 166.250 C 570.017 165.081, 566.956 167.541, 557.480 176.306 M 617.698 187 C 627.557 206.020, 659.601 267.687, 685.770 318 C 701.558 348.352, 737.170 416.876, 746.836 435.500 L 748.912 439.500 748.926 362.500 L 748.939 285.500 734.751 274 C 726.947 267.675, 716.468 259.125, 711.465 255 C 706.462 250.875, 692.954 239.850, 681.448 230.500 C 664.075 216.382, 618.529 178.975, 611.582 173.117 C 610.527 172.228, 613.279 178.475, 617.698 187 M 875.461 194.536 C 860.083 206.931, 842.079 221.478, 835.453 226.863 C 828.828 232.249, 809.590 247.780, 792.703 261.377 L 762 286.099 762.022 363.300 L 762.044 440.500 764.866 435.500 C 766.418 432.750, 776.931 412.950, 788.229 391.500 C 819.179 332.739, 854.211 266.406, 863.486 249 C 897.514 185.140, 904.380 172, 903.724 172 C 903.558 172, 890.840 182.141, 875.461 194.536 M 580.995 419.361 C 576.867 423.838, 555.905 446.400, 534.412 469.500 C 512.919 492.600, 482.577 525.225, 466.984 542 C 451.392 558.775, 429.829 581.894, 419.067 593.376 C 408.305 604.858, 399.648 614.758, 399.828 615.376 C 400.008 615.994, 406.588 628.425, 414.448 643 C 428.800 669.610, 449.506 708.691, 465.048 738.500 C 469.636 747.300, 482.083 770.925, 492.707 791 C 503.332 811.075, 518.656 840.199, 526.762 855.721 C 534.868 871.242, 541.725 883.919, 542 883.892 C 542.275 883.865, 550.150 875.516, 559.500 865.340 C 568.850 855.163, 580.968 842.036, 586.428 836.168 C 591.889 830.301, 621.631 798.050, 652.523 764.500 C 683.414 730.950, 717.309 694.361, 727.845 683.190 C 738.380 672.020, 747 662.499, 747 662.033 C 747 661.172, 719.657 617.367, 660.529 523.500 C 604.764 434.973, 589.518 411.021, 589 411.123 C 588.725 411.178, 585.123 414.885, 580.995 419.361 M 920.334 415.269 C 918.866 417.596, 914.220 424.900, 910.007 431.500 C 905.795 438.100, 896.566 452.725, 889.498 464 C 876.661 484.477, 855.327 518.201, 806.310 595.500 C 792.010 618.050, 776.654 642.313, 772.185 649.418 L 764.060 662.336 772.367 670.918 C 786.920 685.950, 812.239 713.114, 860.008 764.945 C 885.579 792.690, 910.775 820.026, 916 825.692 C 921.225 831.358, 935.400 846.757, 947.500 859.912 C 959.600 873.068, 969.727 883.869, 970.003 883.916 C 970.280 883.962, 979.392 867.013, 990.251 846.250 C 1001.111 825.487, 1019.260 790.950, 1030.582 769.500 C 1041.905 748.050, 1056.596 720.150, 1063.230 707.500 C 1077.732 679.846, 1109.588 620.446, 1111.695 617.133 C 1113.136 614.866, 1112.992 614.547, 1108.295 609.633 C 1097.547 598.385, 1070.982 569.903, 1021.446 516.516 C 992.876 485.725, 959.038 449.396, 946.251 435.785 L 923.001 411.038 920.334 415.269 M 608 414.483 C 608 414.721, 611.215 419.997, 615.144 426.208 C 621.814 436.750, 626.843 444.735, 655.326 490 C 661.383 499.625, 670.019 513.350, 674.518 520.500 C 679.018 527.650, 685.968 538.675, 689.963 545 C 705.256 569.212, 737.652 620.915, 743.199 629.962 L 749 639.423 749 556.279 L 749 473.135 746.750 472.430 C 744.007 471.571, 671.886 441.235, 637.654 426.542 C 610.069 414.702, 608 413.860, 608 414.483 M 892.500 419.028 C 886.450 421.692, 854.619 435.038, 821.765 448.686 L 762.030 473.500 762.015 556.917 C 762.007 602.796, 762.166 640.146, 762.368 639.917 C 762.571 639.687, 766.692 633.200, 771.527 625.500 C 779.923 612.127, 794.717 588.750, 836.711 522.500 C 847.170 506, 864.623 478.325, 875.495 461 C 886.366 443.675, 897.456 426.012, 900.138 421.750 C 902.819 417.488, 904.673 414.041, 904.257 414.092 C 903.841 414.142, 898.550 416.364, 892.500 419.028"  fill="currentColor" fill-rule="evenodd"/>
</svg>