<svg width="245" height="70" viewBox="0 0 245 70" fill="none" xmlns="http://www.w3.org/2000/svg">
<rect x="1.59091" y="8.45456" width="54.0909" height="54.0909" rx="11.1364" stroke="black" stroke-width="3.18182"/>
<path d="M23.9858 43.6388L23.8935 41.7004C23.7089 38.0083 26.0626 36.0237 28.2779 34.2238C30.124 32.6546 31.9239 31.1778 31.9239 28.7779C31.9239 26.6087 30.5394 24.9934 28.8318 24.9934H27.2164C25.0011 24.9934 23.2935 27.4856 23.2474 30.347H16.7399C16.9245 24.0242 21.8166 19.8244 27.3087 19.8244H28.8779C34.5546 19.8244 38.4314 23.7473 38.4314 28.6394C38.4314 36.3006 29.9394 37.5929 29.7086 41.7004L29.5702 43.6388H23.9858ZM23.5243 52.5V46.131H30.0317V52.5H23.5243Z" fill="black"/>
<path d="M81.308 52V21.3469H70.8878V19.2909H93.8776V21.3469H83.5042V52H81.308ZM97.5559 52V19.2909H99.6587V33.0287C100.733 30.3185 103.49 28.0756 106.528 28.0756H109.051C113.163 28.0756 116.2 31.8138 116.2 36.9071V52H114.097V36.9071C114.097 32.8418 111.995 30.0382 108.864 30.0382H106.714C102.416 30.0382 99.6587 34.7576 99.6587 39.2902V52H97.5559ZM131.005 52.3738C125.865 52.3738 121.519 47.0936 121.519 40.0378C121.519 32.7484 126.799 28.0756 131.005 28.0756H133.061C137.967 28.0756 141.705 33.3558 141.705 38.7762C141.705 39.3836 141.612 40.0378 141.612 40.0378H123.809C123.762 46.0189 127.126 50.4113 131.005 50.4113H132.967C136.425 50.4113 138.715 47.6544 139.275 44.6638H141.378C140.911 48.5889 137.687 52.3738 132.967 52.3738H131.005ZM123.949 38.0753H139.462C139.322 34.1969 136.612 30.0382 133.061 30.0382H131.098C127.921 30.0382 124.696 33.1689 123.949 38.0753ZM157.036 52V19.2909H179.512V26.1131H165.073V32.2344H178.718V39.0565H165.073V52H157.036ZM191.842 52.3738C185.721 52.3738 181.142 47.3273 181.142 40.2247C181.142 33.1222 185.721 28.0756 191.795 28.0756H193.805C199.879 28.0756 204.458 33.1222 204.458 40.2247C204.458 47.3273 199.926 52.3738 193.851 52.3738H191.842ZM193.431 46.0656C195.44 46.0656 196.982 43.4022 196.982 40.2247C196.982 37.094 195.44 34.3838 193.384 34.3838H192.216C190.16 34.3838 188.618 36.9538 188.618 40.2247C188.618 43.4956 190.16 46.0656 192.216 46.0656H193.431ZM207.862 52V19.2909H215.291V52H207.862ZM228.509 52.3738C222.528 52.3738 218.743 46.7198 218.743 40.2247C218.743 33.7296 222.528 28.0756 228.509 28.0756H229.865C231.78 28.0756 233.79 29.1971 234.724 30.5055V19.2909H242.154V52H234.724V49.9907C233.463 51.5327 231.266 52.3738 229.818 52.3738H228.509ZM231.36 46.0656C233.556 46.0656 235.191 43.5891 235.191 40.2247C235.191 36.8604 233.556 34.3838 231.36 34.3838H230.051C227.855 34.3838 226.22 36.8604 226.22 40.2247C226.22 43.5891 227.855 46.0656 230.051 46.0656H231.36Z" fill="#03071B"/>
</svg>
