<svg width="450" height="418" viewBox="0 0 450 418" fill="none" xmlns="http://www.w3.org/2000/svg">
<line x1="-4.37114e-08" y1="0.500061" x2="450" y2="0.500022" stroke="#D9D9D9"/>
<line x1="-4.37114e-08" y1="16.5001" x2="450" y2="16.5" stroke="#D9D9D9"/>
<line x1="-4.37114e-08" y1="32.5001" x2="450" y2="32.5001" stroke="#D9D9D9"/>
<line x1="-4.37114e-08" y1="48.5002" x2="450" y2="48.5001" stroke="#D9D9D9"/>
<line x1="-4.37114e-08" y1="64.5002" x2="450" y2="64.5001" stroke="#D9D9D9"/>
<line x1="-4.37114e-08" y1="80.5002" x2="450" y2="80.5002" stroke="#D9D9D9"/>
<line x1="-4.37114e-08" y1="96.5002" x2="450" y2="96.5002" stroke="#D9D9D9"/>
<line x1="-4.37114e-08" y1="112.5" x2="450" y2="112.5" stroke="#D9D9D9"/>
<line x1="-4.37114e-08" y1="128.5" x2="450" y2="128.5" stroke="#D9D9D9"/>
<line x1="-4.37114e-08" y1="144.5" x2="450" y2="144.5" stroke="#D9D9D9"/>
<line x1="-4.37114e-08" y1="160.5" x2="450" y2="160.5" stroke="#D9D9D9"/>
<line x1="-4.37114e-08" y1="176.5" x2="450" y2="176.5" stroke="#D9D9D9"/>
<line x1="-4.37114e-08" y1="192.501" x2="450" y2="192.501" stroke="#D9D9D9"/>
<line x1="-4.37114e-08" y1="208.501" x2="450" y2="208.501" stroke="#D9D9D9"/>
<line x1="-4.37114e-08" y1="224.501" x2="450" y2="224.501" stroke="#D9D9D9"/>
<line x1="-4.37114e-08" y1="240.501" x2="450" y2="240.501" stroke="#D9D9D9"/>
<line x1="-4.37114e-08" y1="256.501" x2="450" y2="256.501" stroke="#D9D9D9"/>
<line x1="-4.37114e-08" y1="272.501" x2="450" y2="272.501" stroke="#D9D9D9"/>
<line x1="-4.37114e-08" y1="288.501" x2="450" y2="288.501" stroke="#D9D9D9"/>
<line x1="-4.37114e-08" y1="304.501" x2="450" y2="304.501" stroke="#D9D9D9"/>
<line x1="-4.37114e-08" y1="320.501" x2="450" y2="320.501" stroke="#D9D9D9"/>
<line x1="-4.37114e-08" y1="336.501" x2="450" y2="336.501" stroke="#D9D9D9"/>
<line x1="-4.37114e-08" y1="352.501" x2="450" y2="352.501" stroke="#D9D9D9"/>
<line x1="-4.37114e-08" y1="368.501" x2="450" y2="368.501" stroke="#D9D9D9"/>
<line x1="-4.37114e-08" y1="384.501" x2="450" y2="384.501" stroke="#D9D9D9"/>
<line x1="-4.37114e-08" y1="400.501" x2="450" y2="400.501" stroke="#D9D9D9"/>
<line x1="-4.37114e-08" y1="416.501" x2="450" y2="416.501" stroke="#D9D9D9"/>
</svg>
