<svg width="417" height="443" viewBox="0 0 417 443" fill="none" xmlns="http://www.w3.org/2000/svg">
<line x1="416.5" y1="-2.18557e-08" x2="416.5" y2="443" stroke="#D9D9D9"/>
<line x1="400.5" y1="-2.18557e-08" x2="400.5" y2="443" stroke="#D9D9D9"/>
<line x1="384.5" y1="-2.18557e-08" x2="384.5" y2="443" stroke="#D9D9D9"/>
<line x1="368.5" y1="-2.18557e-08" x2="368.5" y2="443" stroke="#D9D9D9"/>
<line x1="352.5" y1="-2.18557e-08" x2="352.5" y2="443" stroke="#D9D9D9"/>
<line x1="336.5" y1="-2.18557e-08" x2="336.5" y2="443" stroke="#D9D9D9"/>
<line x1="320.5" y1="-2.18557e-08" x2="320.5" y2="443" stroke="#D9D9D9"/>
<line x1="304.5" y1="-2.18557e-08" x2="304.5" y2="443" stroke="#D9D9D9"/>
<line x1="288.5" y1="-2.18557e-08" x2="288.5" y2="443" stroke="#D9D9D9"/>
<line x1="272.5" y1="-2.18557e-08" x2="272.5" y2="443" stroke="#D9D9D9"/>
<line x1="256.5" y1="-2.18557e-08" x2="256.5" y2="443" stroke="#D9D9D9"/>
<line x1="240.5" y1="-2.18557e-08" x2="240.5" y2="443" stroke="#D9D9D9"/>
<line x1="224.5" y1="-2.18557e-08" x2="224.5" y2="443" stroke="#D9D9D9"/>
<line x1="208.5" y1="-2.18557e-08" x2="208.5" y2="443" stroke="#D9D9D9"/>
<line x1="192.5" y1="-2.18557e-08" x2="192.5" y2="443" stroke="#D9D9D9"/>
<line x1="176.5" y1="-2.18557e-08" x2="176.5" y2="443" stroke="#D9D9D9"/>
<line x1="160.5" y1="-2.18557e-08" x2="160.5" y2="443" stroke="#D9D9D9"/>
<line x1="144.5" y1="-2.18557e-08" x2="144.5" y2="443" stroke="#D9D9D9"/>
<line x1="128.5" y1="-2.18557e-08" x2="128.5" y2="443" stroke="#D9D9D9"/>
<line x1="112.5" y1="-2.18557e-08" x2="112.5" y2="443" stroke="#D9D9D9"/>
<line x1="96.5" y1="-2.18557e-08" x2="96.5" y2="443" stroke="#D9D9D9"/>
<line x1="80.5" y1="-2.18557e-08" x2="80.5" y2="443" stroke="#D9D9D9"/>
<line x1="64.5" y1="-2.18557e-08" x2="64.5" y2="443" stroke="#D9D9D9"/>
<line x1="48.5" y1="-2.18557e-08" x2="48.5" y2="443" stroke="#D9D9D9"/>
<line x1="32.5" y1="-2.18557e-08" x2="32.5" y2="443" stroke="#D9D9D9"/>
<line x1="16.5" y1="-2.18557e-08" x2="16.5" y2="443" stroke="#D9D9D9"/>
<line x1="0.5" y1="-2.18557e-08" x2="0.500019" y2="443" stroke="#D9D9D9"/>
</svg>
