<svg width="58" height="58" viewBox="0 0 58 58" fill="none" xmlns="http://www.w3.org/2000/svg">
<rect x="1.59091" y="1.59091" width="54.8182" height="54.8182" rx="11.1364" stroke="black" stroke-width="3.18182"/>
<path d="M24.2904 37.2422L24.1969 35.2792C24.0099 31.5401 26.3936 29.5304 28.637 27.7076C30.5065 26.1185 32.3293 24.6229 32.3293 22.1925C32.3293 19.9958 30.9272 18.36 29.1979 18.36H27.562C25.3186 18.36 23.5893 20.8838 23.5426 23.7816H16.9525C17.1394 17.3785 22.0937 13.1253 27.6555 13.1253H29.2446C34.9934 13.1253 38.9194 17.098 38.9194 22.0523C38.9194 29.8108 30.3196 31.1195 30.0859 35.2792L29.9457 37.2422H24.2904ZM23.823 46.2159V39.766H30.4131V46.2159H23.823Z" fill="black"/>
</svg>
